<svg xmlns="http://www.w3.org/2000/svg" width="129.08" height="40" viewBox="0 0 129.08 40">
  <g id="Group_16" data-name="Group 16" transform="translate(-160 -130)">
    <path id="Path_10" data-name="Path 10" d="M12.74-13.2v8A5.293,5.293,0,0,1,11.3-1.15,5.923,5.923,0,0,1,7.1.2,5.923,5.923,0,0,1,2.9-1.15,5.293,5.293,0,0,1,1.46-5.2v-8H4.22v7.88a3.625,3.625,0,0,0,.71,2.46,2.754,2.754,0,0,0,2.17.8,2.721,2.721,0,0,0,2.16-.8,3.661,3.661,0,0,0,.7-2.46V-13.2ZM16.22,4.2V-10h2.46l.18,3.18-.34-.36a4.006,4.006,0,0,1,.67-1.56,3.469,3.469,0,0,1,1.25-1.07,3.669,3.669,0,0,1,1.7-.39,3.93,3.93,0,0,1,2.18.62,4.2,4.2,0,0,1,1.51,1.77,6.426,6.426,0,0,1,.55,2.79,6.46,6.46,0,0,1-.56,2.81A4.224,4.224,0,0,1,24.29-.42,4.015,4.015,0,0,1,22.08.2a3.262,3.262,0,0,1-2.19-.74A3.732,3.732,0,0,1,18.7-2.4l.26-.42V4.2Zm5.06-6.1a2.092,2.092,0,0,0,1.73-.79A3.641,3.641,0,0,0,23.64-5a3.728,3.728,0,0,0-.61-2.31,2.037,2.037,0,0,0-1.71-.79,2.1,2.1,0,0,0-1.23.37,2.439,2.439,0,0,0-.83,1.06A4.178,4.178,0,0,0,18.96-5a4.479,4.479,0,0,0,.28,1.65,2.3,2.3,0,0,0,.81,1.08A2.1,2.1,0,0,0,21.28-1.9ZM31.3,0,27.46-13.2H30.4L33-2.3l2.64-10.9h2.64L40.96-2.3l2.58-10.9h2.82L42.52,0h-3.1L37.58-7.2l-.62-3.12h-.04L36.3-7.2,34.48,0ZM52.48-10.2a5.541,5.541,0,0,1,2.67.62,4.448,4.448,0,0,1,1.8,1.78A5.646,5.646,0,0,1,57.6-5a5.66,5.66,0,0,1-.65,2.79,4.432,4.432,0,0,1-1.8,1.79A5.541,5.541,0,0,1,52.48.2a5.556,5.556,0,0,1-2.66-.62,4.416,4.416,0,0,1-1.81-1.79A5.66,5.66,0,0,1,47.36-5a5.646,5.646,0,0,1,.65-2.8,4.432,4.432,0,0,1,1.81-1.78A5.556,5.556,0,0,1,52.48-10.2Zm0,2.04a2.289,2.289,0,0,0-1.29.35,2.183,2.183,0,0,0-.81,1.05A4.773,4.773,0,0,0,50.1-5a4.773,4.773,0,0,0,.28,1.76,2.183,2.183,0,0,0,.81,1.05,2.289,2.289,0,0,0,1.29.35,2.252,2.252,0,0,0,1.27-.35,2.183,2.183,0,0,0,.81-1.05A4.773,4.773,0,0,0,54.84-5a4.773,4.773,0,0,0-.28-1.76,2.183,2.183,0,0,0-.81-1.05A2.252,2.252,0,0,0,52.48-8.16ZM60.54,0V-10h2.38l.18,1.96a3.442,3.442,0,0,1,1.17-1.6,3.2,3.2,0,0,1,1.93-.56,2.965,2.965,0,0,1,.62.06,1.676,1.676,0,0,1,.46.16l-.32,2.3a2.107,2.107,0,0,0-.49-.12,5.691,5.691,0,0,0-.75-.04,2.492,2.492,0,0,0-1.16.29,2.326,2.326,0,0,0-.92.88,2.819,2.819,0,0,0-.36,1.49V0ZM73.2.2a4.015,4.015,0,0,1-2.21-.62A4.169,4.169,0,0,1,69.47-2.2a6.441,6.441,0,0,1-.55-2.78,6.319,6.319,0,0,1,.58-2.83,4.236,4.236,0,0,1,1.57-1.78,4.165,4.165,0,0,1,2.23-.61,3.171,3.171,0,0,1,2.18.76A3.538,3.538,0,0,1,76.6-7.48l-.26.32v-7.22h2.74V0H76.62l-.18-3.04.32.16a3.477,3.477,0,0,1-.62,1.63A3.427,3.427,0,0,1,74.88-.18,3.7,3.7,0,0,1,73.2.2ZM74-1.9a2.083,2.083,0,0,0,1.24-.37,2.387,2.387,0,0,0,.81-1.09,4.6,4.6,0,0,0,.29-1.72,4.227,4.227,0,0,0-.28-1.63,2.284,2.284,0,0,0-.8-1.03,2.09,2.09,0,0,0-1.22-.36,2.113,2.113,0,0,0-1.75.79A3.641,3.641,0,0,0,71.66-5a3.684,3.684,0,0,0,.62,2.31A2.064,2.064,0,0,0,74-1.9Z" transform="translate(210 157)" fill="#1e1f22"/>
    <g id="Group_12" data-name="Group 12" transform="translate(32 112)">
      <circle id="Ellipse_6" data-name="Ellipse 6" cx="20" cy="20" r="20" transform="translate(128 18)" fill="#436cf2"/>
      <g id="next" transform="matrix(0.788, -0.616, 0.616, 0.788, 114.62, 11.737)">
        <g id="Group_2" data-name="Group 2" transform="translate(0 30.99)">
          <g id="Group_1" data-name="Group 1" transform="translate(0 0)">
            <path id="Path_1" data-name="Path 1" d="M23.651,38.931l-9.914-7.794a.639.639,0,0,0-.729-.059.791.791,0,0,0-.381.693v3.918C5.6,36.095,0,42.573,0,50.477v3.118a.757.757,0,0,0,.6.772.7.7,0,0,0,.771-.557l.108-.421c1.439-5.593,5.961-9.572,11.143-9.9v3.875a.791.791,0,0,0,.381.693.642.642,0,0,0,.729-.059L23.651,40.2a.832.832,0,0,0,0-1.268Z" transform="translate(0 -30.99)" fill="#2752e0"/>
          </g>
        </g>
      </g>
      <g id="next-2" data-name="next" transform="matrix(0.788, -0.616, 0.616, 0.788, 113.149, 9.832)">
        <g id="Group_2-2" data-name="Group 2" transform="translate(0 30.99)">
          <g id="Group_1-2" data-name="Group 1" transform="translate(0 0)">
            <path id="Path_1-2" data-name="Path 1" d="M22.427,38.52l-9.4-7.391a.606.606,0,0,0-.691-.056.75.75,0,0,0-.361.657v3.715C5.312,35.83,0,41.973,0,49.468v2.956a.718.718,0,0,0,.573.732.667.667,0,0,0,.731-.528l.1-.4c1.364-5.3,5.653-9.077,10.566-9.392v3.675a.75.75,0,0,0,.361.657.608.608,0,0,0,.691-.056l9.4-7.391a.789.789,0,0,0,0-1.2Z" transform="translate(0 -30.99)" fill="#fff"/>
          </g>
        </g>
      </g>
    </g>
  </g>
</svg>
